<svg id="Capa_1" enable-background="new 0 0 508.583 508.583" height="512" viewBox="0 0 508.583 508.583" width="512" xmlns="http://www.w3.org/2000/svg"><g><g><g><path d="m469.887 161.291c-4.523 0-8.817.962-12.697 2.68-6.005-12.495-18.139-21.525-32.545-23.288 2.882-7.628 4.468-15.883 4.468-24.508 0-38.589-31.546-69.872-70.46-69.872-32.829 0-60.414 22.264-68.238 52.397-9.325-8.665-21.854-13.98-35.642-13.98-26.25 0-47.961 19.236-51.604 44.267-1.838-.314-3.725-.487-5.653-.487-13.369 0-24.878 7.872-30.089 19.194-8.339-9.151-20.399-14.903-33.815-14.903-25.166 0-45.566 20.23-45.566 45.186 0 24.166 19.13 43.9 43.193 45.125v.061h338.648c17.229 0 31.195-13.85 31.195-30.935.001-17.087-13.966-30.937-31.195-30.937z" fill="#495959"/></g></g><g><g><path d="m469.887 161.291c-4.523 0-8.817.962-12.697 2.68-6.005-12.495-18.139-21.525-32.545-23.288 2.882-7.628 4.468-15.883 4.468-24.508 0-38.589-31.546-69.872-70.459-69.872-14.341 0-27.68 4.249-38.809 11.546 2.886-.357 5.825-.546 8.809-.546 38.914 0 70.459 31.283 70.459 69.872 0 1.778-.067 3.54-.2 5.284-.763 10.073 4.018 19.836 12.613 25.143 2.843 1.755 5.458 3.841 7.79 6.202 5.416 5.484 12.728 8.521 20.435 8.488h.136c17.229 0 31.195 13.85 31.195 30.935 0 7.597-2.766 14.551-7.348 19.935h6.153c17.229 0 31.195-13.85 31.195-30.935s-13.966-30.936-31.195-30.936z" fill="#3f4a4a"/></g></g><g><g><path d="m395.13 182.493c-14.153 0-26.874 6.068-35.671 15.721-5.497-11.942-17.637-20.247-31.74-20.247-2.034 0-4.024.182-5.963.514-3.842-26.404-26.744-46.695-54.435-46.695-14.544 0-27.76 5.607-37.597 14.748-8.254-31.786-37.352-55.271-71.981-55.271-41.049 0-74.325 32.999-74.325 73.705 0 9.098 1.673 17.807 4.713 25.853-15.197 1.86-27.996 11.385-34.33 24.566-4.093-1.811-8.622-2.827-13.394-2.827-18.174 0-32.907 14.61-32.907 32.632s14.733 32.632 32.907 32.632h357.226v-.064c25.382-1.292 45.562-22.109 45.562-47.6 0-26.327-21.519-47.667-48.065-47.667z" fill="#738c96"/></g></g><g><g><path d="m395.13 182.493c-14.153 0-26.874 6.068-35.671 15.721-5.498-11.942-17.637-20.247-31.74-20.247-2.034 0-4.024.182-5.963.514-3.842-26.404-26.744-46.695-54.435-46.695-14.544 0-27.76 5.607-37.597 14.747-8.254-31.786-37.352-55.271-71.981-55.271-32.42 0-59.975 20.591-70.134 49.298 13.218-11.984 30.813-19.298 50.134-19.298 25.466 0 47.94 12.7 61.334 32.062 7.046 10.186 19.836 14.699 31.654 10.991 5.234-1.643 10.807-2.529 16.591-2.529 25.614 0 47.13 17.362 53.255 40.863.825 3.165 3.644 5.341 6.914 5.319.076-.001.153-.001.229-.001 11.31 0 21.356 5.34 27.728 13.615 2.385 3.097 6.806 3.594 9.88 1.18 8.192-6.429 18.544-10.269 29.802-10.269 26.546 0 48.066 21.34 48.066 47.665 0 3.191-.316 6.309-.92 9.324 12.628-8.589 20.92-22.992 20.92-39.324-.001-26.325-21.52-47.665-48.066-47.665z" fill="#607882"/></g></g><g><g><path d="m285.369 177.128-67.017 113.991c-2.045 3.478.463 7.862 4.498 7.862h38.247c3.214 0 5.663 2.877 5.151 6.049l-11.309 70.011c-.922 5.71 6.748 8.456 9.659 3.458l65.925-113.193c2.026-3.478-.483-7.843-4.509-7.843h-36.739c-3.198 0-5.643-2.85-5.157-6.011l10.905-70.886c.875-5.683-6.74-8.394-9.654-3.438z" fill="#f7e365"/></g></g><g><path d="m469.888 153.791c-3.144 0-6.232.371-9.237 1.105-6.257-9.483-15.562-16.446-26.395-19.798 1.566-6.164 2.357-12.499 2.357-18.924 0-12.224-2.792-23.922-8.298-34.768-1.874-3.694-6.391-5.168-10.082-3.293-3.694 1.875-5.168 6.389-3.293 10.083 4.428 8.723 6.673 18.136 6.673 27.979 0 7.507-1.34 14.861-3.983 21.858-.814 2.154-.594 4.562.598 6.532s3.222 3.284 5.507 3.563c11.656 1.426 21.637 8.563 26.696 19.092 1.756 3.651 6.093 5.249 9.795 3.609 3.056-1.352 6.307-2.038 9.662-2.038 13.065 0 23.695 10.513 23.695 23.435s-10.63 23.435-23.695 23.435h-21.153c-6.43-23.406-28.019-40.668-53.605-40.668-12.398 0-24.392 4.146-34.07 11.596-7.925-10.008-20.171-16.112-33.307-16.122-7.149-26.767-31.977-46.181-60.432-46.181-12.125 0-23.815 3.454-33.838 9.879-3.615-8.779-8.706-16.709-14.924-23.554 8.337-11.446 21.784-18.392 36.214-18.392 11.382 0 22.228 4.253 30.537 11.975 1.934 1.797 4.669 2.447 7.207 1.705 2.535-.74 4.494-2.759 5.157-5.314 7.152-27.545 32.228-46.782 60.979-46.782 14.789 0 29.16 5.18 40.465 14.586 3.183 2.648 7.912 2.216 10.563-.969 2.649-3.184 2.216-7.913-.969-10.562-13.994-11.643-31.771-18.055-50.059-18.055-31.84 0-60.048 19.102-71.983 47.594-9.476-5.97-20.485-9.177-31.896-9.177-18.681 0-36.151 8.724-47.346 23.214-13.905-10.534-31.208-16.672-49.685-16.672-14.188 0-28.169 3.663-40.432 10.592-3.606 2.038-4.878 6.613-2.84 10.219s6.613 4.877 10.22 2.84c10.016-5.659 21.445-8.651 33.052-8.651 30.516 0 57.13 20.419 64.722 49.656.664 2.556 2.623 4.575 5.158 5.314 2.535.741 5.272.092 7.207-1.705 8.842-8.217 20.381-12.742 32.492-12.742 23.461 0 43.672 17.315 47.013 40.275.291 2 1.377 3.799 3.013 4.987 1.635 1.188 3.678 1.667 5.674 1.326 1.577-.27 3.158-.406 4.698-.406 10.702 0 20.486 6.234 24.928 15.883 1.051 2.285 3.178 3.89 5.664 4.275 2.48.386 4.999-.501 6.692-2.36 7.686-8.435 18.666-13.272 30.127-13.272 22.368 0 40.565 18.018 40.565 40.165 0 21.395-16.887 39.013-38.443 40.11-.202.01-.4.029-.598.054h-60.375l.724-1.243c2.284-3.922 2.297-8.803.035-12.738s-6.486-6.379-11.025-6.379h-34.078l10.501-68.257c.94-6.117-2.475-11.838-8.304-13.914-5.832-2.077-12.092.201-15.229 5.535l-57.025 96.996h-181.472c-14.01.001-25.407-11.274-25.407-25.132s11.397-25.132 25.407-25.132c3.598 0 7.083.735 10.358 2.185 3.702 1.64 8.04.042 9.795-3.61 5.374-11.182 15.952-18.775 28.317-20.344.053-.005.104-.005.157-.011 1.479-.179 2.992-.27 4.494-.27 12.799 0 24.447 6.458 31.16 17.276 1.262 2.034 3.42 3.344 5.807 3.524 2.394.184 4.717-.789 6.271-2.61 5.224-6.122 12.852-9.632 20.929-9.632 15.099 0 27.382 12.153 27.382 27.091 0 4.142 3.358 7.5 7.5 7.5s7.5-3.358 7.5-7.5c0-23.209-19.012-42.091-42.382-42.091-9.364 0-18.341 3.06-25.653 8.59-9.691-10.867-23.546-17.148-38.514-17.148-.027 0-.054.002-.081.002-1.674-5.853-2.53-11.899-2.53-18.044 0-15.086 4.988-29.295 14.424-41.089 2.587-3.234 2.063-7.954-1.171-10.542-3.233-2.588-7.954-2.064-10.542 1.171-11.587 14.482-17.711 31.931-17.711 50.46 0 6.874.863 13.652 2.572 20.24-11.59 3.491-21.536 10.917-28.155 21.075-3.227-.814-6.546-1.224-9.928-1.224-22.28.001-40.406 18.004-40.406 40.133s18.126 40.132 40.407 40.132h64.713l-.27.517c-1.918 3.671-.498 8.202 3.173 10.121 1.109.58 2.297.854 3.467.854 2.703 0 5.314-1.466 6.653-4.028l3.901-7.465h49.527l-.27.517c-1.918 3.671-.498 8.202 3.173 10.121 1.109.58 2.297.854 3.468.854 2.703 0 5.314-1.466 6.653-4.028l3.901-7.465h24.564l-1.173 1.995c-2.306 3.922-2.335 8.812-.076 12.761s6.489 6.402 11.039 6.402h35.566l-10.881 67.363c-.993 6.146 2.406 11.903 8.267 14.002 1.454.521 2.935.771 4.387.771 4.398 0 8.534-2.299 10.89-6.344l56.466-96.95h39.905l-.27.517c-1.918 3.671-.497 8.202 3.174 10.121 1.109.58 2.297.854 3.468.854 2.703 0 5.314-1.466 6.653-4.028l3.9-7.464h13.259c.484 0 .958-.047 1.417-.136 28.875-1.998 51.373-25.709 51.633-54.525h19.205c21.337 0 38.695-17.242 38.695-38.435-.001-21.191-17.359-38.433-38.696-38.433zm-178.053 27.138c-.002.003-.003.005-.005.007zm-27.532 183.174 9.349-57.877c.596-3.686-.451-7.43-2.871-10.273-2.421-2.843-5.95-4.473-9.684-4.473h-34.257l58.96-100.287-9.095 59.118c-.564 3.672.499 7.395 2.918 10.215s5.937 4.437 9.651 4.437h32.769z"/><path d="m98.449 314.279c-3.671-1.918-8.203-.498-10.121 3.174l-6.077 11.629c-1.918 3.671-.498 8.202 3.173 10.121 1.109.58 2.297.854 3.467.854 2.703 0 5.315-1.466 6.653-4.028l6.077-11.629c1.92-3.672.499-8.203-3.172-10.121z"/><path d="m75.85 357.52c-3.669-1.919-8.202-.498-10.121 3.173l-6.078 11.629c-1.918 3.671-.498 8.202 3.173 10.121 1.109.58 2.297.854 3.467.854 2.703 0 5.314-1.466 6.653-4.028l6.078-11.629c1.92-3.67.499-8.202-3.172-10.12z"/><path d="m53.251 400.761c-3.67-1.919-8.202-.498-10.121 3.173l-6.078 11.629c-1.918 3.671-.498 8.202 3.173 10.121 1.109.58 2.297.854 3.467.854 2.703 0 5.314-1.466 6.653-4.028l6.078-11.629c1.92-3.67.5-8.201-3.172-10.12z"/><path d="m30.653 444.002c-3.67-1.919-8.202-.498-10.121 3.173l-6.078 11.629c-1.918 3.671-.498 8.202 3.173 10.121 1.109.58 2.297.854 3.467.854 2.703 0 5.314-1.466 6.653-4.028l6.078-11.629c1.92-3.67.499-8.201-3.172-10.12z"/><path d="m155.343 340.056c2.703 0 5.314-1.466 6.653-4.028l6.078-11.629c1.918-3.671.498-8.202-3.173-10.121-3.67-1.919-8.202-.498-10.121 3.173l-6.078 11.629c-1.918 3.671-.498 8.202 3.173 10.121 1.109.581 2.297.855 3.468.855z"/><path d="m142.302 357.52c-3.67-1.919-8.202-.498-10.121 3.173l-6.078 11.629c-1.918 3.671-.498 8.202 3.173 10.121 1.109.58 2.297.854 3.467.854 2.703 0 5.314-1.466 6.653-4.028l6.078-11.629c1.92-3.67.499-8.202-3.172-10.12z"/><path d="m119.703 400.761c-3.669-1.919-8.202-.498-10.121 3.173l-6.078 11.629c-1.918 3.671-.498 8.202 3.173 10.121 1.109.58 2.297.854 3.467.854 2.703 0 5.314-1.466 6.653-4.028l6.078-11.629c1.92-3.67.5-8.201-3.172-10.12z"/><path d="m97.104 444.002c-3.671-1.918-8.203-.497-10.121 3.174l-6.077 11.629c-1.918 3.671-.498 8.202 3.173 10.121 1.109.58 2.297.854 3.467.854 2.703 0 5.315-1.466 6.653-4.028l6.077-11.629c1.92-3.671.499-8.202-3.172-10.121z"/><path d="m220.657 340.056c2.703 0 5.314-1.466 6.653-4.028l6.078-11.629c1.918-3.671.498-8.202-3.173-10.121-3.669-1.919-8.202-.498-10.121 3.173l-6.078 11.629c-1.918 3.671-.498 8.202 3.173 10.121 1.109.58 2.297.855 3.468.855z"/><path d="m207.616 357.52c-3.67-1.919-8.203-.498-10.121 3.173l-6.078 11.629c-1.918 3.671-.498 8.202 3.173 10.121 1.109.58 2.297.854 3.467.854 2.703 0 5.314-1.466 6.653-4.028l6.078-11.629c1.92-3.671.499-8.202-3.172-10.12z"/><path d="m185.017 400.761c-3.669-1.919-8.202-.498-10.121 3.173l-6.078 11.629c-1.918 3.671-.498 8.202 3.173 10.121 1.109.58 2.297.854 3.467.854 2.703 0 5.314-1.466 6.653-4.028l6.078-11.629c1.92-3.671.499-8.202-3.172-10.12z"/><path d="m162.418 444.002c-3.67-1.919-8.202-.498-10.121 3.173l-6.078 11.629c-1.918 3.671-.498 8.202 3.173 10.121 1.109.58 2.297.854 3.467.854 2.703 0 5.314-1.466 6.653-4.028l6.078-11.629c1.92-3.67.5-8.202-3.172-10.12z"/><path d="m250.379 396.533c-3.67-1.919-8.202-.498-10.121 3.173l-6.078 11.629c-1.918 3.671-.498 8.202 3.173 10.121 1.109.58 2.297.854 3.467.854 2.703 0 5.314-1.466 6.653-4.028l6.078-11.629c1.921-3.67.5-8.201-3.172-10.12z"/><path d="m227.781 439.774c-3.669-1.919-8.202-.498-10.121 3.173l-6.078 11.629c-1.918 3.671-.498 8.202 3.173 10.121 1.109.58 2.297.854 3.467.854 2.703 0 5.314-1.466 6.653-4.028l6.078-11.629c1.92-3.67.499-8.201-3.172-10.12z"/><path d="m360.778 314.278c-3.667-1.917-8.2-.498-10.12 3.173l-6.078 11.629c-1.919 3.671-.499 8.202 3.173 10.121 1.108.58 2.297.854 3.468.854 2.703 0 5.313-1.466 6.652-4.027l6.078-11.629c1.919-3.671.499-8.202-3.173-10.121z"/><path d="m338.18 357.52c-3.666-1.917-8.201-.498-10.12 3.173l-6.078 11.629c-1.919 3.671-.499 8.202 3.173 10.121 1.108.58 2.297.854 3.468.854 2.703 0 5.313-1.466 6.652-4.027l6.078-11.629c1.918-3.672.499-8.203-3.173-10.121z"/><path d="m315.581 400.761c-3.667-1.918-8.201-.498-10.12 3.173l-6.078 11.629c-1.919 3.671-.499 8.202 3.173 10.121 1.108.58 2.297.854 3.468.854 2.703 0 5.313-1.466 6.652-4.027l6.078-11.629c1.919-3.671.499-8.203-3.173-10.121z"/><path d="m292.982 444.002c-3.666-1.917-8.201-.498-10.12 3.173l-6.078 11.629c-1.919 3.671-.499 8.202 3.173 10.121 1.108.58 2.297.854 3.468.854 2.703 0 5.313-1.466 6.652-4.027l6.078-11.629c1.919-3.671.499-8.202-3.173-10.121z"/></g></g></svg>